<svg width="333" height="44" viewBox="0 0 333 44" fill="none" xmlns="http://www.w3.org/2000/svg">
<path d="M75.9917 29.6191V23.9235C75.9917 23.6382 76.0671 23.4516 76.2184 23.3638C76.3911 23.276 76.5963 23.3419 76.8335 23.5614C78.3234 24.988 80.0719 26.0635 82.0796 26.7878C84.1088 27.5121 86.1489 27.8743 88.1999 27.8743C91.4383 27.8743 93.0574 27.4792 93.0574 26.689C93.0574 26.2939 92.8953 26.0415 92.5716 25.9318C92.2692 25.8001 91.7619 25.7342 91.0494 25.7342C90.8337 25.7342 90.4127 25.7452 89.7866 25.7672C89.182 25.7672 88.6857 25.7672 88.2972 25.7672C84.7134 25.6794 81.8314 24.8783 79.651 23.3638C77.4706 21.8274 76.3802 19.9728 76.3802 17.7999C76.3802 15.3197 77.5351 13.5199 79.8452 12.4005C82.1769 11.2592 85.3179 10.6886 89.2684 10.6886C91.4273 10.6886 93.6941 10.7764 96.0688 10.9519C96.2849 10.9739 96.5331 11.1165 96.8137 11.3799C97.0943 11.6433 97.2346 11.9286 97.2346 12.2359V16.6147C97.2346 16.9 97.1158 17.1743 96.8785 17.4377C96.6409 17.6791 96.3712 17.7999 96.0688 17.7999C95.9824 17.7999 95.0542 17.756 93.2841 17.6682C91.5352 17.5804 90.1106 17.5365 89.0093 17.5365C87.045 17.5365 86.0625 17.7779 86.0625 18.2608C86.0625 18.8095 86.9477 19.0838 88.7181 19.0838C90.0997 19.0838 91.4813 19.1826 92.8628 19.3801C94.2663 19.5777 95.7342 19.9179 97.267 20.4008C98.7998 20.8837 100.041 21.6409 100.991 22.6724C101.962 23.6821 102.448 24.9002 102.448 26.3269C102.448 28.6973 101.056 30.6397 98.271 32.1542C95.486 33.6686 92.0968 34.4259 88.1026 34.4259C84.3679 34.4259 80.6765 33.4052 77.0278 31.364C76.3372 30.9909 75.9917 30.4093 75.9917 29.6191Z" fill="white"/>
<path d="M99.9941 16.6147V12.2359C99.9941 11.9506 100.113 11.6872 100.35 11.4458C100.588 11.1824 100.857 11.0507 101.16 11.0507H122.144C122.446 11.0507 122.716 11.1714 122.953 11.4129C123.191 11.6323 123.31 11.9067 123.31 12.2359V16.6147C123.31 16.9 123.191 17.1743 122.953 17.4377C122.716 17.6792 122.446 17.7999 122.144 17.7999H116.444V32.9114C116.444 33.2187 116.326 33.4931 116.088 33.7345C115.872 33.9759 115.603 34.0966 115.279 34.0966H108.025C107.744 34.0966 107.475 33.9869 107.215 33.7674C106.978 33.526 106.859 33.2406 106.859 32.9114V17.7999H101.16C100.879 17.7999 100.609 17.6792 100.35 17.4377C100.113 17.1963 99.9941 16.9219 99.9941 16.6147Z" fill="white"/>
<path d="M121.211 32.9773L129.695 12.1372C129.803 11.8738 130.019 11.6214 130.343 11.3799C130.667 11.1604 130.991 11.0507 131.314 11.0507H139.086C139.367 11.0507 139.669 11.1604 139.993 11.3799C140.338 11.5994 140.565 11.8518 140.673 12.1372L148.963 33.0102C149.006 33.1199 149.028 33.2406 149.028 33.3723C149.028 33.5918 148.952 33.7674 148.801 33.8991C148.65 34.0308 148.455 34.0966 148.218 34.0966H141.515C141.234 34.0966 140.932 33.9869 140.608 33.7674C140.284 33.5479 140.068 33.2845 139.961 32.9773L138.957 30.0142H131.023L129.987 32.9773C129.9 33.2187 129.695 33.4711 129.372 33.7345C129.048 33.9759 128.734 34.0966 128.432 34.0966H121.924C121.664 34.0966 121.47 34.0308 121.34 33.8991C121.19 33.7235 121.114 33.5479 121.114 33.3723C121.114 33.2626 121.146 33.1309 121.211 32.9773ZM132.933 24.549H137.143L135.071 18.4254L132.933 24.549Z" fill="white"/>
<path d="M148.516 22.5737C148.516 18.9961 149.757 16.1318 152.24 13.9808C154.722 11.8079 158.166 10.7215 162.57 10.7215C164.124 10.7215 165.7 10.8093 167.298 10.9849C168.917 11.1604 170.136 11.336 170.957 11.5116C171.799 11.6653 172.349 11.786 172.608 11.8738C172.932 11.9835 173.191 12.1811 173.385 12.4664C173.601 12.7297 173.709 13.0371 173.709 13.3882V18.0303C173.709 18.3157 173.591 18.5571 173.353 18.7546C173.137 18.9302 172.889 18.9741 172.608 18.8863C171.939 18.6668 170.827 18.4144 169.273 18.1291C167.718 17.8438 166.154 17.7011 164.577 17.7011C160.001 17.7011 157.712 19.3253 157.712 22.5737C157.712 24.0223 158.176 25.1855 159.105 26.0635C160.055 26.9414 161.404 27.3804 163.152 27.3804C164.707 27.3804 166.197 27.2816 167.621 27.0841V25.6355H164.318C164.059 25.6355 163.8 25.5148 163.541 25.2734C163.282 25.0319 163.152 24.7576 163.152 24.4503V21.5202C163.152 21.2568 163.271 20.9934 163.509 20.73C163.746 20.4666 164.016 20.3349 164.318 20.3349H173.58C173.882 20.3349 174.152 20.4556 174.389 20.6971C174.627 20.9166 174.745 21.1909 174.745 21.5202V29.6191C174.745 30.4312 174.422 31.0458 173.774 31.4628C172.047 32.5383 170.428 33.3065 168.917 33.7674C167.427 34.2064 165.506 34.4259 163.152 34.4259C158.705 34.4259 155.154 33.3394 152.499 31.1665C149.843 28.9717 148.516 26.1074 148.516 22.5737Z" fill="white"/>
<path d="M177.634 32.9114V12.2359C177.634 11.9286 177.743 11.6543 177.958 11.4129C178.196 11.1714 178.476 11.0507 178.8 11.0507H194.344C194.711 11.0507 195.035 11.1495 195.315 11.347C195.596 11.5446 195.79 11.8189 195.898 12.1701L197.906 17.9316H186.831V19.8411H196.87C197.172 19.8411 197.442 19.9618 197.679 20.2032C197.917 20.4227 198.035 20.6971 198.035 21.0263V24.1211C198.035 24.3844 197.917 24.6478 197.679 24.9112C197.442 25.1746 197.172 25.3063 196.87 25.3063H186.831V27.2158H198.813C199.115 27.2158 199.385 27.3365 199.622 27.5779C199.86 27.7974 199.979 28.0718 199.979 28.401V32.9114C199.979 33.1968 199.86 33.4711 199.622 33.7345C199.385 33.9759 199.115 34.0966 198.813 34.0966H178.8C178.498 34.0966 178.228 33.9869 177.991 33.7674C177.753 33.526 177.634 33.2406 177.634 32.9114Z" fill="white"/>
<path d="M199.207 12.1701C199.164 12.0603 199.143 11.9396 199.143 11.8079C199.143 11.5885 199.207 11.4129 199.337 11.2812C199.488 11.1275 199.693 11.0507 199.952 11.0507H207.238C207.519 11.0507 207.81 11.1714 208.113 11.4129C208.436 11.6323 208.642 11.8957 208.728 12.203L212.322 24.8124L216.047 12.1701C216.133 11.8848 216.316 11.6323 216.597 11.4129C216.899 11.1714 217.212 11.0507 217.536 11.0507H224.628C224.865 11.0507 225.059 11.1275 225.211 11.2812C225.362 11.4129 225.437 11.5885 225.437 11.8079C225.437 11.9177 225.416 12.0384 225.372 12.1701L217.471 32.9773C217.363 33.2626 217.147 33.526 216.823 33.7674C216.521 33.9869 216.208 34.0966 215.884 34.0966H208.436C208.156 34.0966 207.843 33.9869 207.497 33.7674C207.174 33.5479 206.958 33.2845 206.85 32.9773L199.207 12.1701Z" fill="white"/>
<path d="M228.293 32.9114V12.2359C228.293 11.9286 228.401 11.6543 228.617 11.4129C228.855 11.1714 229.136 11.0507 229.459 11.0507H249.472C249.774 11.0507 250.044 11.1714 250.281 11.4129C250.519 11.6323 250.638 11.9067 250.638 12.2359V16.7464C250.638 17.0317 250.519 17.306 250.281 17.5694C250.044 17.8108 249.774 17.9316 249.472 17.9316H237.49V19.8411H247.529C247.831 19.8411 248.101 19.9618 248.338 20.2032C248.576 20.4227 248.695 20.6971 248.695 21.0263V24.1211C248.695 24.3844 248.576 24.6478 248.338 24.9112C248.101 25.1746 247.831 25.3063 247.529 25.3063H237.49V27.2158H249.472C249.774 27.2158 250.044 27.3365 250.281 27.5779C250.519 27.7974 250.638 28.0718 250.638 28.401V32.9114C250.638 33.1968 250.519 33.4711 250.281 33.7345C250.044 33.9759 249.774 34.0966 249.472 34.0966H229.459C229.157 34.0966 228.887 33.9869 228.65 33.7674C228.412 33.526 228.293 33.2406 228.293 32.9114Z" fill="white"/>
<path d="M262.625 19.9728C262.647 19.9728 263.413 20.0057 264.924 20.0715C266.457 20.1154 267.645 20.1374 268.487 20.1374C268.81 20.1374 269.08 20.0277 269.296 19.8082C269.534 19.5887 269.652 19.3253 269.652 19.018C269.652 18.7107 269.523 18.4473 269.264 18.2279C269.027 17.9864 268.724 17.8657 268.357 17.8657C267.537 17.8657 266.392 17.8986 264.924 17.9645C263.456 18.0084 262.69 18.0303 262.625 18.0303V19.9728ZM253.558 32.9114V12.2359C253.558 11.9286 253.666 11.6543 253.882 11.4129C254.12 11.1714 254.4 11.0507 254.724 11.0507C255.955 11.0507 257.919 11.0178 260.618 10.952C263.316 10.8861 265.712 10.8532 267.807 10.8532C271.002 10.8532 273.679 11.5994 275.837 13.0919C277.996 14.5625 279.076 16.4061 279.076 18.6229C279.076 20.0715 278.569 21.3994 277.554 22.6066C276.561 23.7918 275.222 24.7027 273.538 25.3392L280.242 33.2077C280.371 33.3614 280.446 33.515 280.468 33.6687C280.468 33.954 280.263 34.0966 279.853 34.0966H270.235C269.415 34.0966 268.821 33.7455 268.454 33.0431L265.022 26.1952H262.625V32.9114C262.625 33.1968 262.507 33.4711 262.269 33.7345C262.032 33.9759 261.762 34.0966 261.46 34.0966H254.724C254.443 34.0966 254.174 33.9869 253.915 33.7674C253.677 33.526 253.558 33.2406 253.558 32.9114Z" fill="white"/>
<path d="M281.317 29.685V23.9235C281.317 23.6382 281.392 23.4516 281.544 23.3638C281.694 23.2541 281.889 23.309 282.126 23.5284C283.659 24.977 285.43 26.0415 287.437 26.722C289.445 27.3804 291.474 27.7096 293.525 27.7096C296.763 27.7096 298.382 27.3146 298.382 26.5244C298.382 26.1293 298.22 25.8769 297.897 25.7672C297.594 25.6355 297.087 25.5697 296.375 25.5697C296.159 25.5697 295.738 25.5806 295.112 25.6026C294.507 25.6026 294.011 25.6026 293.622 25.6026C290.039 25.5148 287.157 24.7356 284.976 23.2651C282.796 21.7945 281.705 19.9728 281.705 17.7999C281.705 16.1098 282.288 14.7271 283.454 13.6516C284.62 12.5542 286.131 11.786 287.988 11.347C289.844 10.908 292.046 10.6886 294.594 10.6886C296.58 10.6886 298.534 10.8641 300.455 11.2153C302.376 11.5665 303.79 12.0055 304.697 12.5322C305.366 12.9273 305.701 13.476 305.701 14.1783V18.2279C305.701 18.4912 305.593 18.7107 305.377 18.8863C305.183 19.04 304.945 19.0509 304.665 18.9193C303.391 18.2608 301.826 17.734 299.969 17.3389C298.134 16.9439 296.256 16.7463 294.334 16.7463C292.24 16.7463 291.193 17.1305 291.193 17.8986C291.193 18.5571 292.133 18.8863 294.011 18.8863C295.047 18.8863 296.115 18.9522 297.216 19.0838C298.339 19.1936 299.548 19.424 300.844 19.7752C302.139 20.1045 303.283 20.5324 304.276 21.0592C305.269 21.586 306.1 22.3103 306.769 23.2321C307.439 24.132 307.773 25.1636 307.773 26.3269C307.773 28.6973 306.381 30.6397 303.596 32.1542C300.811 33.6686 297.422 34.4259 293.428 34.4259C289.693 34.4259 286.001 33.4052 282.353 31.364C281.662 30.9909 281.317 30.4312 281.317 29.685Z" fill="white"/>
<path d="M310.468 32.9114V12.2359C310.468 11.9286 310.576 11.6543 310.791 11.4129C311.029 11.1714 311.31 11.0507 311.634 11.0507H331.646C331.948 11.0507 332.218 11.1714 332.456 11.4129C332.693 11.6323 332.812 11.9067 332.812 12.2359V16.7464C332.812 17.0317 332.693 17.306 332.456 17.5694C332.218 17.8108 331.948 17.9316 331.646 17.9316H319.664V19.8411H329.703C330.005 19.8411 330.275 19.9618 330.512 20.2032C330.75 20.4227 330.869 20.6971 330.869 21.0263V24.1211C330.869 24.3844 330.75 24.6478 330.512 24.9112C330.275 25.1746 330.005 25.3063 329.703 25.3063H319.664V27.2158H331.646C331.948 27.2158 332.218 27.3365 332.456 27.5779C332.693 27.7974 332.812 28.0718 332.812 28.401V32.9114C332.812 33.1968 332.693 33.4711 332.456 33.7345C332.218 33.9759 331.948 34.0966 331.646 34.0966H311.634C311.331 34.0966 311.061 33.9869 310.824 33.7674C310.587 33.526 310.468 33.2406 310.468 32.9114Z" fill="white"/>
<path d="M29.297 33.3953C28.873 33.6435 28.3508 33.6426 27.9276 33.393L1.83892 18.0022C1.38287 17.7331 0.811523 18.0677 0.811523 18.6037V27.0461C0.811523 27.5424 1.07162 28.0011 1.49406 28.2498L27.9287 43.8128C28.3513 44.0615 28.8724 44.0626 29.2959 43.8151L55.8244 28.3163C56.249 28.0682 56.511 27.6082 56.511 27.1103V18.6663C56.511 18.1313 55.9414 17.7966 55.4855 18.0636L29.297 33.3953Z" fill="white"/>
<path d="M27.9285 0.186806C28.3515 -0.0618233 28.8727 -0.0622973 29.2961 0.185561L54.3949 14.8795C54.8512 15.1464 54.8523 15.8151 54.3971 16.0836L48.3041 19.6797C47.8803 19.9297 47.3577 19.9304 46.9331 19.6813L29.2988 9.3295C28.874 9.08011 28.3504 9.08104 27.9265 9.33195L27.417 9.63348C26.9628 9.90225 26.964 10.5697 27.419 10.8368L44.3777 20.792C44.834 21.0598 44.834 21.7292 44.3777 21.9967L29.2977 30.8395C28.8735 31.0883 28.3509 31.0875 27.9273 30.8376L2.92562 16.0834C2.47059 15.8149 2.47161 15.1464 2.92747 14.8793L9.0204 11.3096C9.44344 11.0617 9.96429 11.0618 10.3872 11.3099L27.9252 21.5967C28.3499 21.8459 28.8733 21.8449 29.2971 21.5941L29.8065 21.2926C30.2608 21.0238 30.2595 20.3562 29.8042 20.0892L12.9446 10.2002C12.4885 9.93267 12.4882 9.26363 12.944 8.99567L27.9285 0.186806Z" fill="white"/>
</svg>
